# xmcd
#
# Track frame offsets: 
#        150
#        6390
#        19580
#        32445
#        77195
#        83752
#        98347
#        102385
#        116082
#        133610
#        147205
#        163137
#        177700
#
# Disc length: 2701 seconds
#
# Revision: 0
# Processed by: cddbd v1.5.2PL0 Copyright (c) Steve Scherf et al.
# Submitted via: ExactAudioCopy v0.99pb5
#
DISCID=a20a8b0d
DTITLE=Reverend Robert Wilkins - Remember Me
DYEAR=1993
DGENRE=Blues
TTITLE0=Jesus Said If You Go
TTITLE1=(Jesus Will Fix It) Alright
TTITLE2=You Gotta Move
TTITLE3=Streamline 'Frisco Ltd
TTITLE4=Pray For Me
TTITLE5=Don't Let Nobody Turn You 'Round
TTITLE6=Why Don't You Do It?
TTITLE7=Just A Closer Walk With Thee
TTITLE8=Rock Of Ages
TTITLE9=Remember Me
TTITLE10=You're Got To Stand Your Test In Judgement
TTITLE11=When The Saints Go Marchin' In
TTITLE12=In The Army Of The Lord
EXTD=
EXTT0=
EXTT1=
EXTT2=
EXTT3=
EXTT4=
EXTT5=
EXTT6=
EXTT7=
EXTT8=
EXTT9=
EXTT10=
EXTT11=
EXTT12=
PLAYORDER=
